<svg width="962" height="1316" xmlns="http://www.w3.org/2000/svg" xmlns:xlink="http://www.w3.org/1999/xlink" xml:space="preserve" overflow="hidden"><defs><clipPath id="clip0"><rect x="-27" y="1168" width="962" height="1316"/></clipPath></defs><g clip-path="url(#clip0)" transform="translate(27 -1168)"><rect x="0" y="1176" width="909" height="1299" stroke="#000000" stroke-width="13.75" stroke-linecap="butt" stroke-linejoin="miter" stroke-miterlimit="8" stroke-opacity="1" fill="none"/><path d="M9.99997 2338C9.99997 2344.07 5.07497 2349-0.999853 2349-7.07503 2349-12 2344.07-12 2338-12 2331.92-7.07503 2327-0.999853 2327 5.07497 2327 9.99997 2331.92 9.99997 2338Z" stroke="#0000B2" stroke-width="22.0808" stroke-linecap="square" stroke-linejoin="miter" stroke-miterlimit="8" stroke-opacity="1" fill="#0000B2" fill-rule="evenodd" fill-opacity="1"/><path d="M9.99997 2201C9.99997 2207.08 5.07497 2212-0.999853 2212-7.07503 2212-12 2207.08-12 2201-12 2194.92-7.07503 2190-0.999853 2190 5.07497 2190 9.99997 2194.92 9.99997 2201Z" stroke="#0000B2" stroke-width="22.0808" stroke-linecap="square" stroke-linejoin="miter" stroke-miterlimit="8" stroke-opacity="1" fill="#0000B2" fill-rule="evenodd" fill-opacity="1"/><path d="M9.99997 2064C9.99997 2070.07 5.07497 2075-0.999853 2075-7.07503 2075-12 2070.07-12 2064-12 2057.92-7.07503 2053-0.999853 2053 5.07497 2053 9.99997 2057.92 9.99997 2064Z" stroke="#0000B2" stroke-width="22.0808" stroke-linecap="square" stroke-linejoin="miter" stroke-miterlimit="8" stroke-opacity="1" fill="#0000B2" fill-rule="evenodd" fill-opacity="1"/><text fill="#000000" fill-opacity="1" font-family="Cambria Math,Cambria Math_MSFontService,sans-serif" font-style="normal" font-variant="normal" font-weight="400" font-stretch="normal" font-size="83" text-anchor="start" direction="ltr" writing-mode="lr-tb" unicode-bidi="normal" text-decoration="none" transform="translate(50.1435 2094)">𝐴</text><text fill="#000000" fill-opacity="1" font-family="Cambria Math,Cambria Math_MSFontService,sans-serif" font-style="normal" font-variant="normal" font-weight="400" font-stretch="normal" font-size="83" text-anchor="start" direction="ltr" writing-mode="lr-tb" unicode-bidi="normal" text-decoration="none" transform="translate(50.281 2231)">𝐵</text><text fill="#000000" fill-opacity="1" font-family="Cambria Math,Cambria Math_MSFontService,sans-serif" font-style="normal" font-variant="normal" font-weight="400" font-stretch="normal" font-size="83" text-anchor="start" direction="ltr" writing-mode="lr-tb" unicode-bidi="normal" text-decoration="none" transform="translate(50.1664 2368)">𝐶</text><path d="M921 1312C921 1318.08 916.075 1323 910 1323 903.925 1323 899 1318.08 899 1312 899 1305.92 903.925 1301 910 1301 916.075 1301 921 1305.92 921 1312Z" stroke="#B20000" stroke-width="22.0808" stroke-linecap="square" stroke-linejoin="miter" stroke-miterlimit="8" stroke-opacity="1" fill="#B20000" fill-rule="evenodd" fill-opacity="1"/><path d="M921 1460C921 1466.08 916.075 1471 910 1471 903.925 1471 899 1466.08 899 1460 899 1453.92 903.925 1449 910 1449 916.075 1449 921 1453.92 921 1460Z" stroke="#B20000" stroke-width="22.0808" stroke-linecap="square" stroke-linejoin="miter" stroke-miterlimit="8" stroke-opacity="1" fill="#B20000" fill-rule="evenodd" fill-opacity="1"/><path d="M921 1607C921 1613.08 916.075 1618 910 1618 903.925 1618 899 1613.08 899 1607 899 1600.92 903.925 1596 910 1596 916.075 1596 921 1600.92 921 1607Z" stroke="#B20000" stroke-width="22.0808" stroke-linecap="square" stroke-linejoin="miter" stroke-miterlimit="8" stroke-opacity="1" fill="#B20000" fill-rule="evenodd" fill-opacity="1"/><path d="M921 1755C921 1761.08 916.075 1766 910 1766 903.925 1766 899 1761.08 899 1755 899 1748.92 903.925 1744 910 1744 916.075 1744 921 1748.92 921 1755Z" stroke="#B20000" stroke-width="22.0808" stroke-linecap="square" stroke-linejoin="miter" stroke-miterlimit="8" stroke-opacity="1" fill="#B20000" fill-rule="evenodd" fill-opacity="1"/><path d="M921 1902C921 1908.08 916.075 1913 910 1913 903.925 1913 899 1908.08 899 1902 899 1895.92 903.925 1891 910 1891 916.075 1891 921 1895.92 921 1902Z" stroke="#B20000" stroke-width="22.0808" stroke-linecap="square" stroke-linejoin="miter" stroke-miterlimit="8" stroke-opacity="1" fill="#B20000" fill-rule="evenodd" fill-opacity="1"/><path d="M921 2050C921 2056.08 916.075 2061 910 2061 903.925 2061 899 2056.08 899 2050 899 2043.92 903.925 2039 910 2039 916.075 2039 921 2043.92 921 2050Z" stroke="#B20000" stroke-width="22.0808" stroke-linecap="square" stroke-linejoin="miter" stroke-miterlimit="8" stroke-opacity="1" fill="#B20000" fill-rule="evenodd" fill-opacity="1"/><path d="M921 2197C921 2203.08 916.075 2208 910 2208 903.925 2208 899 2203.08 899 2197 899 2190.92 903.925 2186 910 2186 916.075 2186 921 2190.92 921 2197Z" stroke="#B20000" stroke-width="22.0808" stroke-linecap="square" stroke-linejoin="miter" stroke-miterlimit="8" stroke-opacity="1" fill="#B20000" fill-rule="evenodd" fill-opacity="1"/><path d="M921 2344.5C921 2350.85 916.075 2356 910 2356 903.925 2356 899 2350.85 899 2344.5 899 2338.15 903.925 2333 910 2333 916.075 2333 921 2338.15 921 2344.5Z" stroke="#B20000" stroke-width="22.0808" stroke-linecap="square" stroke-linejoin="miter" stroke-miterlimit="8" stroke-opacity="1" fill="#B20000" fill-rule="evenodd" fill-opacity="1"/><text fill="#000000" fill-opacity="1" font-family="Cambria Math,Cambria Math_MSFontService,sans-serif" font-style="normal" font-variant="normal" font-weight="400" font-stretch="normal" font-size="83" text-anchor="start" direction="ltr" writing-mode="lr-tb" unicode-bidi="normal" text-decoration="none" transform="translate(771.063 1342)">𝑈</text><text fill="#000000" fill-opacity="1" font-family="Cambria Math,Cambria Math_MSFontService,sans-serif" font-style="normal" font-variant="normal" font-weight="400" font-stretch="normal" font-size="61" text-anchor="start" direction="ltr" writing-mode="lr-tb" unicode-bidi="normal" text-decoration="none" transform="translate(822.74 1359)">0</text><text fill="#000000" fill-opacity="1" font-family="Cambria Math,Cambria Math_MSFontService,sans-serif" font-style="normal" font-variant="normal" font-weight="400" font-stretch="normal" font-size="83" text-anchor="start" direction="ltr" writing-mode="lr-tb" unicode-bidi="normal" text-decoration="none" transform="translate(772.252 1479)">𝑈</text><text fill="#000000" fill-opacity="1" font-family="Cambria Math,Cambria Math_MSFontService,sans-serif" font-style="normal" font-variant="normal" font-weight="400" font-stretch="normal" font-size="61" text-anchor="start" direction="ltr" writing-mode="lr-tb" unicode-bidi="normal" text-decoration="none" transform="translate(822.027 1496)">1</text><text fill="#000000" fill-opacity="1" font-family="Cambria Math,Cambria Math_MSFontService,sans-serif" font-style="normal" font-variant="normal" font-weight="400" font-stretch="normal" font-size="83" text-anchor="start" direction="ltr" writing-mode="lr-tb" unicode-bidi="normal" text-decoration="none" transform="translate(772.023 1637)">𝑈</text><text fill="#000000" fill-opacity="1" font-family="Cambria Math,Cambria Math_MSFontService,sans-serif" font-style="normal" font-variant="normal" font-weight="400" font-stretch="normal" font-size="61" text-anchor="start" direction="ltr" writing-mode="lr-tb" unicode-bidi="normal" text-decoration="none" transform="translate(823.7 1654)">2</text><text fill="#000000" fill-opacity="1" font-family="Cambria Math,Cambria Math_MSFontService,sans-serif" font-style="normal" font-variant="normal" font-weight="400" font-stretch="normal" font-size="83" text-anchor="start" direction="ltr" writing-mode="lr-tb" unicode-bidi="normal" text-decoration="none" transform="translate(774.588 1785)">𝑈</text><text fill="#000000" fill-opacity="1" font-family="Cambria Math,Cambria Math_MSFontService,sans-serif" font-style="normal" font-variant="normal" font-weight="400" font-stretch="normal" font-size="61" text-anchor="start" direction="ltr" writing-mode="lr-tb" unicode-bidi="normal" text-decoration="none" transform="translate(826.265 1801)">3</text><text fill="#000000" fill-opacity="1" font-family="Cambria Math,Cambria Math_MSFontService,sans-serif" font-style="normal" font-variant="normal" font-weight="400" font-stretch="normal" font-size="83" text-anchor="start" direction="ltr" writing-mode="lr-tb" unicode-bidi="normal" text-decoration="none" transform="translate(774.588 1930)">𝑈</text><text fill="#000000" fill-opacity="1" font-family="Cambria Math,Cambria Math_MSFontService,sans-serif" font-style="normal" font-variant="normal" font-weight="400" font-stretch="normal" font-size="61" text-anchor="start" direction="ltr" writing-mode="lr-tb" unicode-bidi="normal" text-decoration="none" transform="translate(826.265 1947)">4</text><text fill="#000000" fill-opacity="1" font-family="Cambria Math,Cambria Math_MSFontService,sans-serif" font-style="normal" font-variant="normal" font-weight="400" font-stretch="normal" font-size="83" text-anchor="start" direction="ltr" writing-mode="lr-tb" unicode-bidi="normal" text-decoration="none" transform="translate(772.023 2080)">𝑈</text><text fill="#000000" fill-opacity="1" font-family="Cambria Math,Cambria Math_MSFontService,sans-serif" font-style="normal" font-variant="normal" font-weight="400" font-stretch="normal" font-size="61" text-anchor="start" direction="ltr" writing-mode="lr-tb" unicode-bidi="normal" text-decoration="none" transform="translate(823.7 2096)">5</text><text fill="#000000" fill-opacity="1" font-family="Cambria Math,Cambria Math_MSFontService,sans-serif" font-style="normal" font-variant="normal" font-weight="400" font-stretch="normal" font-size="83" text-anchor="start" direction="ltr" writing-mode="lr-tb" unicode-bidi="normal" text-decoration="none" transform="translate(771.063 2217)">𝑈</text><text fill="#000000" fill-opacity="1" font-family="Cambria Math,Cambria Math_MSFontService,sans-serif" font-style="normal" font-variant="normal" font-weight="400" font-stretch="normal" font-size="61" text-anchor="start" direction="ltr" writing-mode="lr-tb" unicode-bidi="normal" text-decoration="none" transform="translate(822.74 2234)">6</text><text fill="#000000" fill-opacity="1" font-family="Cambria Math,Cambria Math_MSFontService,sans-serif" font-style="normal" font-variant="normal" font-weight="400" font-stretch="normal" font-size="83" text-anchor="start" direction="ltr" writing-mode="lr-tb" unicode-bidi="normal" text-decoration="none" transform="translate(775.09 2357)">𝑈</text><text fill="#000000" fill-opacity="1" font-family="Cambria Math,Cambria Math_MSFontService,sans-serif" font-style="normal" font-variant="normal" font-weight="400" font-stretch="normal" font-size="61" text-anchor="start" direction="ltr" writing-mode="lr-tb" unicode-bidi="normal" text-decoration="none" transform="translate(826.767 2374)">7</text><text fill="#000000" fill-opacity="1" font-family="Cambria Math,Cambria Math_MSFontService,sans-serif" font-style="normal" font-variant="normal" font-weight="400" font-stretch="normal" font-size="83" text-anchor="start" direction="ltr" writing-mode="lr-tb" unicode-bidi="normal" text-decoration="none" transform="translate(87.5617 1342)">𝐷𝐸𝐶</text><text fill="#000000" fill-opacity="1" font-family="Cambria Math,Cambria Math_MSFontService,sans-serif" font-style="normal" font-variant="normal" font-weight="400" font-stretch="normal" font-size="83" text-anchor="start" direction="ltr" writing-mode="lr-tb" unicode-bidi="normal" text-decoration="none" transform="translate(249.308 1342)"> </text><text fill="#000000" fill-opacity="1" font-family="Cambria Math,Cambria Math_MSFontService,sans-serif" font-style="normal" font-variant="normal" font-weight="400" font-stretch="normal" font-size="83" text-anchor="start" direction="ltr" writing-mode="lr-tb" unicode-bidi="normal" text-decoration="none" transform="translate(267.641 1342)">3</text><text fill="#000000" fill-opacity="1" font-family="Cambria Math,Cambria Math_MSFontService,sans-serif" font-style="normal" font-variant="normal" font-weight="400" font-stretch="normal" font-size="83" text-anchor="start" direction="ltr" writing-mode="lr-tb" unicode-bidi="normal" text-decoration="none" transform="translate(313.474 1342)">:</text><text fill="#000000" fill-opacity="1" font-family="Cambria Math,Cambria Math_MSFontService,sans-serif" font-style="normal" font-variant="normal" font-weight="400" font-stretch="normal" font-size="83" text-anchor="start" direction="ltr" writing-mode="lr-tb" unicode-bidi="normal" text-decoration="none" transform="translate(348.995 1342)">8</text></g></svg>