<svg width="1082" height="2113" xmlns="http://www.w3.org/2000/svg" xmlns:xlink="http://www.w3.org/1999/xlink" xml:space="preserve" overflow="hidden"><defs><clipPath id="clip0"><rect x="1489" y="183" width="1082" height="2113"/></clipPath></defs><g clip-path="url(#clip0)" transform="translate(-1489 -183)"><text fill="#000000" fill-opacity="1" font-family="Cambria Math,Cambria Math_MSFontService,sans-serif" font-style="normal" font-variant="normal" font-weight="400" font-stretch="normal" font-size="83" text-anchor="start" direction="ltr" writing-mode="lr-tb" unicode-bidi="normal" text-decoration="none" transform="translate(1951.97 1246)">𝑀𝑈𝑋</text><text fill="#000000" fill-opacity="1" font-family="Cambria Math,Cambria Math_MSFontService,sans-serif" font-style="normal" font-variant="normal" font-weight="400" font-stretch="normal" font-size="83" text-anchor="start" direction="ltr" writing-mode="lr-tb" unicode-bidi="normal" text-decoration="none" transform="translate(2451.95 1268)">𝑍</text><rect x="1513" y="193" width="1039" height="2079" stroke="#000000" stroke-width="13.75" stroke-linecap="butt" stroke-linejoin="miter" stroke-miterlimit="8" stroke-opacity="1" fill="none"/><text fill="#000000" fill-opacity="1" font-family="Cambria Math,Cambria Math_MSFontService,sans-serif" font-style="normal" font-variant="normal" font-weight="400" font-stretch="normal" font-size="83" text-anchor="start" direction="ltr" writing-mode="lr-tb" unicode-bidi="normal" text-decoration="none" transform="translate(2276.95 2207)">𝐴</text><path d="M1524 397C1524 403.075 1519.07 408 1513 408 1506.92 408 1502 403.075 1502 397 1502 390.925 1506.92 386 1513 386 1519.07 386 1524 390.925 1524 397Z" stroke="#0000B2" stroke-width="22.0808" stroke-linecap="square" stroke-linejoin="miter" stroke-miterlimit="8" stroke-opacity="1" fill="#0000B2" fill-rule="evenodd" fill-opacity="1"/><path d="M1523 636C1523 642.075 1518.08 647 1512 647 1505.93 647 1501 642.075 1501 636 1501 629.925 1505.93 625 1512 625 1518.08 625 1523 629.925 1523 636Z" stroke="#0000B2" stroke-width="22.0808" stroke-linecap="square" stroke-linejoin="miter" stroke-miterlimit="8" stroke-opacity="1" fill="#0000B2" fill-rule="evenodd" fill-opacity="1"/><path d="M1526 875C1526 881.075 1521.07 886 1515 886 1508.92 886 1504 881.075 1504 875 1504 868.925 1508.92 864 1515 864 1521.07 864 1526 868.925 1526 875Z" stroke="#0000B2" stroke-width="22.0808" stroke-linecap="square" stroke-linejoin="miter" stroke-miterlimit="8" stroke-opacity="1" fill="#0000B2" fill-rule="evenodd" fill-opacity="1"/><path d="M1526 1114C1526 1120.08 1521.07 1125 1515 1125 1508.92 1125 1504 1120.08 1504 1114 1504 1107.92 1508.92 1103 1515 1103 1521.07 1103 1526 1107.92 1526 1114Z" stroke="#0000B2" stroke-width="22.0808" stroke-linecap="square" stroke-linejoin="miter" stroke-miterlimit="8" stroke-opacity="1" fill="#0000B2" fill-rule="evenodd" fill-opacity="1"/><path d="M1524 1351C1524 1357.08 1519.07 1362 1513 1362 1506.92 1362 1502 1357.08 1502 1351 1502 1344.92 1506.92 1340 1513 1340 1519.07 1340 1524 1344.92 1524 1351Z" stroke="#0000B2" stroke-width="22.0808" stroke-linecap="square" stroke-linejoin="miter" stroke-miterlimit="8" stroke-opacity="1" fill="#0000B2" fill-rule="evenodd" fill-opacity="1"/><path d="M1524 1590C1524 1596.08 1518.85 1601 1512.5 1601 1506.15 1601 1501 1596.08 1501 1590 1501 1583.92 1506.15 1579 1512.5 1579 1518.85 1579 1524 1583.92 1524 1590Z" stroke="#0000B2" stroke-width="22.0808" stroke-linecap="square" stroke-linejoin="miter" stroke-miterlimit="8" stroke-opacity="1" fill="#0000B2" fill-rule="evenodd" fill-opacity="1"/><path d="M1527 1829C1527 1835.08 1522.07 1840 1516 1840 1509.92 1840 1505 1835.08 1505 1829 1505 1822.92 1509.92 1818 1516 1818 1522.07 1818 1527 1822.92 1527 1829Z" stroke="#0000B2" stroke-width="22.0808" stroke-linecap="square" stroke-linejoin="miter" stroke-miterlimit="8" stroke-opacity="1" fill="#0000B2" fill-rule="evenodd" fill-opacity="1"/><path d="M1526 2068C1526 2074.08 1521.07 2079 1515 2079 1508.92 2079 1504 2074.08 1504 2068 1504 2061.92 1508.92 2057 1515 2057 1521.07 2057 1526 2061.92 1526 2068Z" stroke="#0000B2" stroke-width="22.0808" stroke-linecap="square" stroke-linejoin="miter" stroke-miterlimit="8" stroke-opacity="1" fill="#0000B2" fill-rule="evenodd" fill-opacity="1"/><path d="M2560 1237.5C2560 1243.85 2555.07 1249 2549 1249 2542.93 1249 2538 1243.85 2538 1237.5 2538 1231.15 2542.93 1226 2549 1226 2555.07 1226 2560 1231.15 2560 1237.5Z" stroke="#B20000" stroke-width="22.0808" stroke-linecap="square" stroke-linejoin="miter" stroke-miterlimit="8" stroke-opacity="1" fill="#B20000" fill-rule="evenodd" fill-opacity="1"/><text fill="#000000" fill-opacity="1" font-family="Cambria Math,Cambria Math_MSFontService,sans-serif" font-style="normal" font-variant="normal" font-weight="400" font-stretch="normal" font-size="83" text-anchor="start" direction="ltr" writing-mode="lr-tb" unicode-bidi="normal" text-decoration="none" transform="translate(2004.07 2207)">𝐵</text><path d="M2315 2271C2315 2277.08 2310.08 2282 2304 2282 2297.93 2282 2293 2277.08 2293 2271 2293 2264.93 2297.93 2260 2304 2260 2310.08 2260 2315 2264.93 2315 2271Z" stroke="#0000B2" stroke-width="22.0808" stroke-linecap="square" stroke-linejoin="miter" stroke-miterlimit="8" stroke-opacity="1" fill="#0000B2" fill-rule="evenodd" fill-opacity="1"/><path d="M2043 2271C2043 2277.08 2038.07 2282 2032 2282 2025.92 2282 2021 2277.08 2021 2271 2021 2264.93 2025.92 2260 2032 2260 2038.07 2260 2043 2264.93 2043 2271Z" stroke="#0000B2" stroke-width="22.0808" stroke-linecap="square" stroke-linejoin="miter" stroke-miterlimit="8" stroke-opacity="1" fill="#0000B2" fill-rule="evenodd" fill-opacity="1"/><path d="M1772 2271C1772 2277.08 1767.07 2282 1761 2282 1754.93 2282 1750 2277.08 1750 2271 1750 2264.93 1754.93 2260 1761 2260 1767.07 2260 1772 2264.93 1772 2271Z" stroke="#0000B2" stroke-width="22.0808" stroke-linecap="square" stroke-linejoin="miter" stroke-miterlimit="8" stroke-opacity="1" fill="#0000B2" fill-rule="evenodd" fill-opacity="1"/><text fill="#000000" fill-opacity="1" font-family="Cambria Math,Cambria Math_MSFontService,sans-serif" font-style="normal" font-variant="normal" font-weight="400" font-stretch="normal" font-size="83" text-anchor="start" direction="ltr" writing-mode="lr-tb" unicode-bidi="normal" text-decoration="none" transform="translate(1734.74 2207)">𝐶</text><text fill="#000000" fill-opacity="1" font-family="Cambria Math,Cambria Math_MSFontService,sans-serif" font-style="normal" font-variant="normal" font-weight="400" font-stretch="normal" font-size="83" text-anchor="start" direction="ltr" writing-mode="lr-tb" unicode-bidi="normal" text-decoration="none" transform="translate(1572.63 426)">𝐼</text><text fill="#000000" fill-opacity="1" font-family="Cambria Math,Cambria Math_MSFontService,sans-serif" font-style="normal" font-variant="normal" font-weight="400" font-stretch="normal" font-size="61" text-anchor="start" direction="ltr" writing-mode="lr-tb" unicode-bidi="normal" text-decoration="none" transform="translate(1599.31 443)">0</text><text fill="#000000" fill-opacity="1" font-family="Cambria Math,Cambria Math_MSFontService,sans-serif" font-style="normal" font-variant="normal" font-weight="400" font-stretch="normal" font-size="83" text-anchor="start" direction="ltr" writing-mode="lr-tb" unicode-bidi="normal" text-decoration="none" transform="translate(1572.72 666)">𝐼</text><text fill="#000000" fill-opacity="1" font-family="Cambria Math,Cambria Math_MSFontService,sans-serif" font-style="normal" font-variant="normal" font-weight="400" font-stretch="normal" font-size="61" text-anchor="start" direction="ltr" writing-mode="lr-tb" unicode-bidi="normal" text-decoration="none" transform="translate(1597.5 683)">1</text><text fill="#000000" fill-opacity="1" font-family="Cambria Math,Cambria Math_MSFontService,sans-serif" font-style="normal" font-variant="normal" font-weight="400" font-stretch="normal" font-size="83" text-anchor="start" direction="ltr" writing-mode="lr-tb" unicode-bidi="normal" text-decoration="none" transform="translate(1572.63 906)">𝐼</text><text fill="#000000" fill-opacity="1" font-family="Cambria Math,Cambria Math_MSFontService,sans-serif" font-style="normal" font-variant="normal" font-weight="400" font-stretch="normal" font-size="61" text-anchor="start" direction="ltr" writing-mode="lr-tb" unicode-bidi="normal" text-decoration="none" transform="translate(1599.31 923)">2</text><text fill="#000000" fill-opacity="1" font-family="Cambria Math,Cambria Math_MSFontService,sans-serif" font-style="normal" font-variant="normal" font-weight="400" font-stretch="normal" font-size="83" text-anchor="start" direction="ltr" writing-mode="lr-tb" unicode-bidi="normal" text-decoration="none" transform="translate(1572.63 1146)">𝐼</text><text fill="#000000" fill-opacity="1" font-family="Cambria Math,Cambria Math_MSFontService,sans-serif" font-style="normal" font-variant="normal" font-weight="400" font-stretch="normal" font-size="61" text-anchor="start" direction="ltr" writing-mode="lr-tb" unicode-bidi="normal" text-decoration="none" transform="translate(1599.31 1163)">3</text><text fill="#000000" fill-opacity="1" font-family="Cambria Math,Cambria Math_MSFontService,sans-serif" font-style="normal" font-variant="normal" font-weight="400" font-stretch="normal" font-size="83" text-anchor="start" direction="ltr" writing-mode="lr-tb" unicode-bidi="normal" text-decoration="none" transform="translate(1572.63 1385)">𝐼</text><text fill="#000000" fill-opacity="1" font-family="Cambria Math,Cambria Math_MSFontService,sans-serif" font-style="normal" font-variant="normal" font-weight="400" font-stretch="normal" font-size="61" text-anchor="start" direction="ltr" writing-mode="lr-tb" unicode-bidi="normal" text-decoration="none" transform="translate(1599.31 1402)">4</text><text fill="#000000" fill-opacity="1" font-family="Cambria Math,Cambria Math_MSFontService,sans-serif" font-style="normal" font-variant="normal" font-weight="400" font-stretch="normal" font-size="83" text-anchor="start" direction="ltr" writing-mode="lr-tb" unicode-bidi="normal" text-decoration="none" transform="translate(1572.63 1625)">𝐼</text><text fill="#000000" fill-opacity="1" font-family="Cambria Math,Cambria Math_MSFontService,sans-serif" font-style="normal" font-variant="normal" font-weight="400" font-stretch="normal" font-size="61" text-anchor="start" direction="ltr" writing-mode="lr-tb" unicode-bidi="normal" text-decoration="none" transform="translate(1599.31 1642)">5</text><text fill="#000000" fill-opacity="1" font-family="Cambria Math,Cambria Math_MSFontService,sans-serif" font-style="normal" font-variant="normal" font-weight="400" font-stretch="normal" font-size="83" text-anchor="start" direction="ltr" writing-mode="lr-tb" unicode-bidi="normal" text-decoration="none" transform="translate(1572.63 1865)">𝐼</text><text fill="#000000" fill-opacity="1" font-family="Cambria Math,Cambria Math_MSFontService,sans-serif" font-style="normal" font-variant="normal" font-weight="400" font-stretch="normal" font-size="61" text-anchor="start" direction="ltr" writing-mode="lr-tb" unicode-bidi="normal" text-decoration="none" transform="translate(1599.31 1882)">6</text><text fill="#000000" fill-opacity="1" font-family="Cambria Math,Cambria Math_MSFontService,sans-serif" font-style="normal" font-variant="normal" font-weight="400" font-stretch="normal" font-size="83" text-anchor="start" direction="ltr" writing-mode="lr-tb" unicode-bidi="normal" text-decoration="none" transform="translate(1572.63 2105)">𝐼</text><text fill="#000000" fill-opacity="1" font-family="Cambria Math,Cambria Math_MSFontService,sans-serif" font-style="normal" font-variant="normal" font-weight="400" font-stretch="normal" font-size="61" text-anchor="start" direction="ltr" writing-mode="lr-tb" unicode-bidi="normal" text-decoration="none" transform="translate(1599.31 2122)">7</text></g></svg>