<svg width="958" height="1333" xmlns="http://www.w3.org/2000/svg" xmlns:xlink="http://www.w3.org/1999/xlink" xml:space="preserve" overflow="hidden"><defs><clipPath id="clip0"><rect x="1778" y="802" width="958" height="1333"/></clipPath></defs><g clip-path="url(#clip0)" transform="translate(-1778 -802)"><rect x="1803" y="813" width="910" height="1299" stroke="#000000" stroke-width="13.75" stroke-linecap="butt" stroke-linejoin="miter" stroke-miterlimit="8" stroke-opacity="1" fill="none"/><text fill="#000000" fill-opacity="1" font-family="Cambria Math,Cambria Math_MSFontService,sans-serif" font-style="normal" font-variant="normal" font-weight="400" font-stretch="normal" font-size="83" text-anchor="start" direction="ltr" writing-mode="lr-tb" unicode-bidi="normal" text-decoration="none" transform="translate(2166.5 1493)">𝑀𝑈𝑋</text><path d="M2725 1403C2725 1409.08 2720.07 1414 2714 1414 2707.93 1414 2703 1409.08 2703 1403 2703 1396.92 2707.93 1392 2714 1392 2720.07 1392 2725 1396.92 2725 1403Z" stroke="#B20000" stroke-width="22.0808" stroke-linecap="square" stroke-linejoin="miter" stroke-miterlimit="8" stroke-opacity="1" fill="#B20000" fill-rule="evenodd" fill-opacity="1"/><text fill="#000000" fill-opacity="1" font-family="Cambria Math,Cambria Math_MSFontService,sans-serif" font-style="normal" font-variant="normal" font-weight="400" font-stretch="normal" font-size="83" text-anchor="start" direction="ltr" writing-mode="lr-tb" unicode-bidi="normal" text-decoration="none" transform="translate(2623.05 1433)">𝑍</text><path d="M1814 1884C1814 1890.08 1809.07 1895 1803 1895 1796.93 1895 1792 1890.08 1792 1884 1792 1877.92 1796.93 1873 1803 1873 1809.07 1873 1814 1877.92 1814 1884Z" stroke="#0000B2" stroke-width="22.0808" stroke-linecap="square" stroke-linejoin="miter" stroke-miterlimit="8" stroke-opacity="1" fill="#0000B2" fill-rule="evenodd" fill-opacity="1"/><path d="M1814 1603.5C1814 1609.85 1809.07 1615 1803 1615 1796.93 1615 1792 1609.85 1792 1603.5 1792 1597.15 1796.93 1592 1803 1592 1809.07 1592 1814 1597.15 1814 1603.5Z" stroke="#0000B2" stroke-width="22.0808" stroke-linecap="square" stroke-linejoin="miter" stroke-miterlimit="8" stroke-opacity="1" fill="#0000B2" fill-rule="evenodd" fill-opacity="1"/><path d="M1813 1323C1813 1329.08 1808.07 1334 1802 1334 1795.92 1334 1791 1329.08 1791 1323 1791 1316.92 1795.92 1312 1802 1312 1808.07 1312 1813 1316.92 1813 1323Z" stroke="#0000B2" stroke-width="22.0808" stroke-linecap="square" stroke-linejoin="miter" stroke-miterlimit="8" stroke-opacity="1" fill="#0000B2" fill-rule="evenodd" fill-opacity="1"/><path d="M1814 1042C1814 1048.08 1809.07 1053 1803 1053 1796.93 1053 1792 1048.08 1792 1042 1792 1035.92 1796.93 1031 1803 1031 1809.07 1031 1814 1035.92 1814 1042Z" stroke="#0000B2" stroke-width="22.0808" stroke-linecap="square" stroke-linejoin="miter" stroke-miterlimit="8" stroke-opacity="1" fill="#0000B2" fill-rule="evenodd" fill-opacity="1"/><text fill="#000000" fill-opacity="1" font-family="Cambria Math,Cambria Math_MSFontService,sans-serif" font-style="normal" font-variant="normal" font-weight="400" font-stretch="normal" font-size="83" text-anchor="start" direction="ltr" writing-mode="lr-tb" unicode-bidi="normal" text-decoration="none" transform="translate(1855.49 1072)">𝐼</text><text fill="#000000" fill-opacity="1" font-family="Cambria Math,Cambria Math_MSFontService,sans-serif" font-style="normal" font-variant="normal" font-weight="400" font-stretch="normal" font-size="61" text-anchor="start" direction="ltr" writing-mode="lr-tb" unicode-bidi="normal" text-decoration="none" transform="translate(1882.17 1089)">0</text><text fill="#000000" fill-opacity="1" font-family="Cambria Math,Cambria Math_MSFontService,sans-serif" font-style="normal" font-variant="normal" font-weight="400" font-stretch="normal" font-size="83" text-anchor="start" direction="ltr" writing-mode="lr-tb" unicode-bidi="normal" text-decoration="none" transform="translate(1855.58 1353)">𝐼</text><text fill="#000000" fill-opacity="1" font-family="Cambria Math,Cambria Math_MSFontService,sans-serif" font-style="normal" font-variant="normal" font-weight="400" font-stretch="normal" font-size="61" text-anchor="start" direction="ltr" writing-mode="lr-tb" unicode-bidi="normal" text-decoration="none" transform="translate(1880.35 1370)">1</text><text fill="#000000" fill-opacity="1" font-family="Cambria Math,Cambria Math_MSFontService,sans-serif" font-style="normal" font-variant="normal" font-weight="400" font-stretch="normal" font-size="83" text-anchor="start" direction="ltr" writing-mode="lr-tb" unicode-bidi="normal" text-decoration="none" transform="translate(1852.66 1632)">𝐼</text><text fill="#000000" fill-opacity="1" font-family="Cambria Math,Cambria Math_MSFontService,sans-serif" font-style="normal" font-variant="normal" font-weight="400" font-stretch="normal" font-size="61" text-anchor="start" direction="ltr" writing-mode="lr-tb" unicode-bidi="normal" text-decoration="none" transform="translate(1879.34 1649)">2</text><text fill="#000000" fill-opacity="1" font-family="Cambria Math,Cambria Math_MSFontService,sans-serif" font-style="normal" font-variant="normal" font-weight="400" font-stretch="normal" font-size="83" text-anchor="start" direction="ltr" writing-mode="lr-tb" unicode-bidi="normal" text-decoration="none" transform="translate(1855.49 1909)">𝐼</text><text fill="#000000" fill-opacity="1" font-family="Cambria Math,Cambria Math_MSFontService,sans-serif" font-style="normal" font-variant="normal" font-weight="400" font-stretch="normal" font-size="61" text-anchor="start" direction="ltr" writing-mode="lr-tb" unicode-bidi="normal" text-decoration="none" transform="translate(1882.17 1926)">3</text><path d="M2440 2112.5C2440 2118.85 2435.07 2124 2429 2124 2422.93 2124 2418 2118.85 2418 2112.5 2418 2106.15 2422.93 2101 2429 2101 2435.07 2101 2440 2106.15 2440 2112.5Z" stroke="#0000B2" stroke-width="22.0808" stroke-linecap="square" stroke-linejoin="miter" stroke-miterlimit="8" stroke-opacity="1" fill="#0000B2" fill-rule="evenodd" fill-opacity="1"/><path d="M2098 2112.5C2098 2118.85 2093.07 2124 2087 2124 2080.93 2124 2076 2118.85 2076 2112.5 2076 2106.15 2080.93 2101 2087 2101 2093.07 2101 2098 2106.15 2098 2112.5Z" stroke="#0000B2" stroke-width="22.0808" stroke-linecap="square" stroke-linejoin="miter" stroke-miterlimit="8" stroke-opacity="1" fill="#0000B2" fill-rule="evenodd" fill-opacity="1"/><text fill="#000000" fill-opacity="1" font-family="Cambria Math,Cambria Math_MSFontService,sans-serif" font-style="normal" font-variant="normal" font-weight="400" font-stretch="normal" font-size="83" text-anchor="start" direction="ltr" writing-mode="lr-tb" unicode-bidi="normal" text-decoration="none" transform="translate(2402.77 2062)">𝐴</text><text fill="#000000" fill-opacity="1" font-family="Cambria Math,Cambria Math_MSFontService,sans-serif" font-style="normal" font-variant="normal" font-weight="400" font-stretch="normal" font-size="83" text-anchor="start" direction="ltr" writing-mode="lr-tb" unicode-bidi="normal" text-decoration="none" transform="translate(2057.66 2062)">𝐵</text></g></svg>