<svg width="1082" height="2113" xmlns="http://www.w3.org/2000/svg" xmlns:xlink="http://www.w3.org/1999/xlink" xml:space="preserve" overflow="hidden"><defs><clipPath id="clip0"><rect x="1489" y="183" width="1082" height="2113"/></clipPath></defs><g clip-path="url(#clip0)" transform="translate(-1489 -183)"><text fill="#000000" fill-opacity="1" font-family="Cambria Math,Cambria Math_MSFontService,sans-serif" font-style="normal" font-variant="normal" font-weight="400" font-stretch="normal" font-size="83" text-anchor="start" direction="ltr" writing-mode="lr-tb" unicode-bidi="normal" text-decoration="none" transform="translate(1951.97 1246)">𝑀𝑈𝑋</text><text fill="#000000" fill-opacity="1" font-family="Cambria Math,Cambria Math_MSFontService,sans-serif" font-style="normal" font-variant="normal" font-weight="400" font-stretch="normal" font-size="83" text-anchor="start" direction="ltr" writing-mode="lr-tb" unicode-bidi="normal" text-decoration="none" transform="translate(2451.95 1268)">𝑍</text><rect x="1513" y="193" width="1039" height="2079" stroke="#000000" stroke-width="13.75" stroke-linecap="butt" stroke-linejoin="miter" stroke-miterlimit="8" stroke-opacity="1" fill="none"/><text fill="#000000" fill-opacity="1" font-family="Cambria Math,Cambria Math_MSFontService,sans-serif" font-style="normal" font-variant="normal" font-weight="400" font-stretch="normal" font-size="83" text-anchor="start" direction="ltr" writing-mode="lr-tb" unicode-bidi="normal" text-decoration="none" transform="translate(2277.06 2207)">𝐴</text><text fill="#000000" fill-opacity="1" font-family="Cambria Math,Cambria Math_MSFontService,sans-serif" font-style="normal" font-variant="normal" font-weight="400" font-stretch="normal" font-size="61" text-anchor="start" direction="ltr" writing-mode="lr-tb" unicode-bidi="normal" text-decoration="none" transform="translate(2329.2 2224)">0</text><path d="M2560 1237.5C2560 1243.85 2555.07 1249 2549 1249 2542.93 1249 2538 1243.85 2538 1237.5 2538 1231.15 2542.93 1226 2549 1226 2555.07 1226 2560 1231.15 2560 1237.5Z" stroke="#B20000" stroke-width="22.0808" stroke-linecap="square" stroke-linejoin="miter" stroke-miterlimit="8" stroke-opacity="1" fill="#B20000" fill-rule="evenodd" fill-opacity="1"/><path d="M2315 2271C2315 2277.08 2310.08 2282 2304 2282 2297.93 2282 2293 2277.08 2293 2271 2293 2264.93 2297.93 2260 2304 2260 2310.08 2260 2315 2264.93 2315 2271Z" stroke="#0000B2" stroke-width="22.0808" stroke-linecap="square" stroke-linejoin="miter" stroke-miterlimit="8" stroke-opacity="1" fill="#0000B2" fill-rule="evenodd" fill-opacity="1"/><path d="M2043 2271C2043 2277.08 2038.07 2282 2032 2282 2025.92 2282 2021 2277.08 2021 2271 2021 2264.93 2025.92 2260 2032 2260 2038.07 2260 2043 2264.93 2043 2271Z" stroke="#0000B2" stroke-width="22.0808" stroke-linecap="square" stroke-linejoin="miter" stroke-miterlimit="8" stroke-opacity="1" fill="#0000B2" fill-rule="evenodd" fill-opacity="1"/><path d="M1772 2271C1772 2277.08 1767.07 2282 1761 2282 1754.93 2282 1750 2277.08 1750 2271 1750 2264.93 1754.93 2260 1761 2260 1767.07 2260 1772 2264.93 1772 2271Z" stroke="#0000B2" stroke-width="22.0808" stroke-linecap="square" stroke-linejoin="miter" stroke-miterlimit="8" stroke-opacity="1" fill="#0000B2" fill-rule="evenodd" fill-opacity="1"/><path d="M1523 633C1523 639.075 1518.08 644 1512 644 1505.93 644 1501 639.075 1501 633 1501 626.925 1505.93 622 1512 622 1518.08 622 1523 626.925 1523 633Z" stroke="#0000B2" stroke-width="22.0808" stroke-linecap="square" stroke-linejoin="miter" stroke-miterlimit="8" stroke-opacity="1" fill="#0000B2" fill-rule="evenodd" fill-opacity="1"/><path d="M1526 872C1526 878.075 1521.07 883 1515 883 1508.92 883 1504 878.075 1504 872 1504 865.925 1508.92 861 1515 861 1521.07 861 1526 865.925 1526 872Z" stroke="#0000B2" stroke-width="22.0808" stroke-linecap="square" stroke-linejoin="miter" stroke-miterlimit="8" stroke-opacity="1" fill="#0000B2" fill-rule="evenodd" fill-opacity="1"/><path d="M1526 1111C1526 1117.08 1521.07 1122 1515 1122 1508.92 1122 1504 1117.08 1504 1111 1504 1104.92 1508.92 1100 1515 1100 1521.07 1100 1526 1104.92 1526 1111Z" stroke="#0000B2" stroke-width="22.0808" stroke-linecap="square" stroke-linejoin="miter" stroke-miterlimit="8" stroke-opacity="1" fill="#0000B2" fill-rule="evenodd" fill-opacity="1"/><path d="M1524 1348C1524 1354.08 1519.07 1359 1513 1359 1506.92 1359 1502 1354.08 1502 1348 1502 1341.92 1506.92 1337 1513 1337 1519.07 1337 1524 1341.92 1524 1348Z" stroke="#0000B2" stroke-width="22.0808" stroke-linecap="square" stroke-linejoin="miter" stroke-miterlimit="8" stroke-opacity="1" fill="#0000B2" fill-rule="evenodd" fill-opacity="1"/><path d="M1524 1587C1524 1593.08 1518.85 1598 1512.5 1598 1506.15 1598 1501 1593.08 1501 1587 1501 1580.92 1506.15 1576 1512.5 1576 1518.85 1576 1524 1580.92 1524 1587Z" stroke="#0000B2" stroke-width="22.0808" stroke-linecap="square" stroke-linejoin="miter" stroke-miterlimit="8" stroke-opacity="1" fill="#0000B2" fill-rule="evenodd" fill-opacity="1"/><path d="M1527 1826C1527 1832.08 1522.07 1837 1516 1837 1509.92 1837 1505 1832.08 1505 1826 1505 1819.92 1509.92 1815 1516 1815 1522.07 1815 1527 1819.92 1527 1826Z" stroke="#0000B2" stroke-width="22.0808" stroke-linecap="square" stroke-linejoin="miter" stroke-miterlimit="8" stroke-opacity="1" fill="#0000B2" fill-rule="evenodd" fill-opacity="1"/><text fill="#000000" fill-opacity="1" font-family="Cambria Math,Cambria Math_MSFontService,sans-serif" font-style="normal" font-variant="normal" font-weight="400" font-stretch="normal" font-size="83" text-anchor="start" direction="ltr" writing-mode="lr-tb" unicode-bidi="normal" text-decoration="none" transform="translate(1572.63 663)">𝐼</text><text fill="#000000" fill-opacity="1" font-family="Cambria Math,Cambria Math_MSFontService,sans-serif" font-style="normal" font-variant="normal" font-weight="400" font-stretch="normal" font-size="61" text-anchor="start" direction="ltr" writing-mode="lr-tb" unicode-bidi="normal" text-decoration="none" transform="translate(1599.31 680)">0</text><text fill="#000000" fill-opacity="1" font-family="Cambria Math,Cambria Math_MSFontService,sans-serif" font-style="normal" font-variant="normal" font-weight="400" font-stretch="normal" font-size="83" text-anchor="start" direction="ltr" writing-mode="lr-tb" unicode-bidi="normal" text-decoration="none" transform="translate(1572.72 903)">𝐼</text><text fill="#000000" fill-opacity="1" font-family="Cambria Math,Cambria Math_MSFontService,sans-serif" font-style="normal" font-variant="normal" font-weight="400" font-stretch="normal" font-size="61" text-anchor="start" direction="ltr" writing-mode="lr-tb" unicode-bidi="normal" text-decoration="none" transform="translate(1597.5 920)">1</text><text fill="#000000" fill-opacity="1" font-family="Cambria Math,Cambria Math_MSFontService,sans-serif" font-style="normal" font-variant="normal" font-weight="400" font-stretch="normal" font-size="83" text-anchor="start" direction="ltr" writing-mode="lr-tb" unicode-bidi="normal" text-decoration="none" transform="translate(1595.69 1132)">.</text><text fill="#000000" fill-opacity="1" font-family="Cambria Math,Cambria Math_MSFontService,sans-serif" font-style="normal" font-variant="normal" font-weight="400" font-stretch="normal" font-size="83" text-anchor="start" direction="ltr" writing-mode="lr-tb" unicode-bidi="normal" text-decoration="none" transform="translate(1573.27 1862)">𝐼</text><text fill="#000000" fill-opacity="1" font-family="Cambria Math,Cambria Math_MSFontService,sans-serif" font-style="normal" font-variant="normal" font-weight="400" font-stretch="normal" font-size="61" text-anchor="start" direction="ltr" writing-mode="lr-tb" unicode-bidi="normal" text-decoration="none" transform="translate(1604.79 1879)">2</text><text fill="#000000" fill-opacity="1" font-family="Cambria Math,Cambria Math_MSFontService,sans-serif" font-style="normal" font-variant="normal" font-weight="400" font-stretch="normal" font-size="50" text-anchor="start" direction="ltr" writing-mode="lr-tb" unicode-bidi="normal" text-decoration="none" transform="translate(1639.73 1857)">𝑛</text><text fill="#000000" fill-opacity="1" font-family="Cambria Math,Cambria Math_MSFontService,sans-serif" font-style="normal" font-variant="normal" font-weight="400" font-stretch="normal" font-size="61" text-anchor="start" direction="ltr" writing-mode="lr-tb" unicode-bidi="normal" text-decoration="none" transform="translate(1677.18 1879)">−</text><text fill="#000000" fill-opacity="1" font-family="Cambria Math,Cambria Math_MSFontService,sans-serif" font-style="normal" font-variant="normal" font-weight="400" font-stretch="normal" font-size="61" text-anchor="start" direction="ltr" writing-mode="lr-tb" unicode-bidi="normal" text-decoration="none" transform="translate(1720.72 1879)">1</text><text fill="#000000" fill-opacity="1" font-family="Cambria Math,Cambria Math_MSFontService,sans-serif" font-style="normal" font-variant="normal" font-weight="400" font-stretch="normal" font-size="83" text-anchor="start" direction="ltr" writing-mode="lr-tb" unicode-bidi="normal" text-decoration="none" transform="translate(1595.69 1361)">.</text><text fill="#000000" fill-opacity="1" font-family="Cambria Math,Cambria Math_MSFontService,sans-serif" font-style="normal" font-variant="normal" font-weight="400" font-stretch="normal" font-size="83" text-anchor="start" direction="ltr" writing-mode="lr-tb" unicode-bidi="normal" text-decoration="none" transform="translate(1595.67 1603)">.</text><text fill="#000000" fill-opacity="1" font-family="Cambria Math,Cambria Math_MSFontService,sans-serif" font-style="normal" font-variant="normal" font-weight="400" font-stretch="normal" font-size="83" text-anchor="start" direction="ltr" writing-mode="lr-tb" unicode-bidi="normal" text-decoration="none" transform="translate(1981.69 2208)">.</text><text fill="#000000" fill-opacity="1" font-family="Cambria Math,Cambria Math_MSFontService,sans-serif" font-style="normal" font-variant="normal" font-weight="400" font-stretch="normal" font-size="83" text-anchor="start" direction="ltr" writing-mode="lr-tb" unicode-bidi="normal" text-decoration="none" transform="translate(2012.63 2208)">.</text><text fill="#000000" fill-opacity="1" font-family="Cambria Math,Cambria Math_MSFontService,sans-serif" font-style="normal" font-variant="normal" font-weight="400" font-stretch="normal" font-size="83" text-anchor="start" direction="ltr" writing-mode="lr-tb" unicode-bidi="normal" text-decoration="none" transform="translate(2043.57 2208)">.</text><text fill="#000000" fill-opacity="1" font-family="Cambria Math,Cambria Math_MSFontService,sans-serif" font-style="normal" font-variant="normal" font-weight="400" font-stretch="normal" font-size="83" text-anchor="start" direction="ltr" writing-mode="lr-tb" unicode-bidi="normal" text-decoration="none" transform="translate(1716.46 2203)">𝐴</text><text fill="#000000" fill-opacity="1" font-family="Cambria Math,Cambria Math_MSFontService,sans-serif" font-style="normal" font-variant="normal" font-weight="400" font-stretch="normal" font-size="61" text-anchor="start" direction="ltr" writing-mode="lr-tb" unicode-bidi="normal" text-decoration="none" transform="translate(1768.6 2220)">𝑛</text><text fill="#000000" fill-opacity="1" font-family="Cambria Math,Cambria Math_MSFontService,sans-serif" font-style="normal" font-variant="normal" font-weight="400" font-stretch="normal" font-size="61" text-anchor="start" direction="ltr" writing-mode="lr-tb" unicode-bidi="normal" text-decoration="none" transform="translate(1808.59 2220)"> </text><text fill="#000000" fill-opacity="1" font-family="Cambria Math,Cambria Math_MSFontService,sans-serif" font-style="normal" font-variant="normal" font-weight="400" font-stretch="normal" font-size="61" text-anchor="start" direction="ltr" writing-mode="lr-tb" unicode-bidi="normal" text-decoration="none" transform="translate(1821.77 2220)">−</text><text fill="#000000" fill-opacity="1" font-family="Cambria Math,Cambria Math_MSFontService,sans-serif" font-style="normal" font-variant="normal" font-weight="400" font-stretch="normal" font-size="61" text-anchor="start" direction="ltr" writing-mode="lr-tb" unicode-bidi="normal" text-decoration="none" transform="translate(1865.31 2220)">1</text></g></svg>